<?xml version="1.0" encoding="UTF-8"?> <svg xmlns="http://www.w3.org/2000/svg" width="258" height="32" viewBox="0 0 258 32" fill="none"> <path d="M27.7227 31V17.0742C27.7227 15.3685 27.3581 14.0924 26.6289 13.2461C25.8997 12.3867 24.7669 11.957 23.2305 11.957C21.2122 11.957 19.7214 12.5365 18.7578 13.6953C17.7943 14.8542 17.3125 16.638 17.3125 19.0469V31H14.0703V17.0742C14.0703 15.3685 13.7057 14.0924 12.9766 13.2461C12.2474 12.3867 11.1081 11.957 9.55859 11.957C7.52734 11.957 6.03646 12.569 5.08594 13.793C4.14844 15.0039 3.67969 16.9961 3.67969 19.7695V31H0.4375V9.59375H3.07422L3.60156 12.5234H3.75781C4.36979 11.4818 5.22917 10.668 6.33594 10.082C7.45573 9.49609 8.70573 9.20312 10.0859 9.20312C13.4323 9.20312 15.6198 10.4141 16.6484 12.8359H16.8047C17.4427 11.7161 18.3672 10.8307 19.5781 10.1797C20.7891 9.52865 22.1693 9.20312 23.7188 9.20312C26.1406 9.20312 27.9505 9.82812 29.1484 11.0781C30.3594 12.3151 30.9648 14.3008 30.9648 17.0352V31H27.7227ZM50.8281 31L50.1836 27.9531H50.0273C48.9596 29.2943 47.8919 30.2057 46.8242 30.6875C45.7695 31.1562 44.4479 31.3906 42.8594 31.3906C40.737 31.3906 39.0703 30.8438 37.8594 29.75C36.6615 28.6562 36.0625 27.1003 36.0625 25.082C36.0625 20.7591 39.5195 18.4935 46.4336 18.2852L50.0664 18.168V16.8398C50.0664 15.1602 49.7018 13.9232 48.9727 13.1289C48.2565 12.3216 47.1042 11.918 45.5156 11.918C43.7318 11.918 41.7135 12.4648 39.4609 13.5586L38.4648 11.0781C39.5195 10.5052 40.6719 10.056 41.9219 9.73047C43.1849 9.40495 44.4479 9.24219 45.7109 9.24219C48.263 9.24219 50.151 9.80859 51.375 10.9414C52.612 12.0742 53.2305 13.8906 53.2305 16.3906V31H50.8281ZM43.5039 28.7148C45.5221 28.7148 47.1042 28.1615 48.25 27.0547C49.4089 25.9479 49.9883 24.3984 49.9883 22.4062V20.4727L46.7461 20.6094C44.168 20.7005 42.306 21.1042 41.1602 21.8203C40.0273 22.5234 39.4609 23.6237 39.4609 25.1211C39.4609 26.293 39.8125 27.1849 40.5156 27.7969C41.2318 28.4089 42.2279 28.7148 43.5039 28.7148ZM63.1719 31H59.9297V0.609375H63.1719V31ZM73.2891 31H70.0469V9.59375H73.2891V31ZM69.7734 3.79297C69.7734 3.05078 69.9557 2.51042 70.3203 2.17188C70.6849 1.82031 71.1406 1.64453 71.6875 1.64453C72.2083 1.64453 72.6576 1.82031 73.0352 2.17188C73.4128 2.52344 73.6016 3.0638 73.6016 3.79297C73.6016 4.52214 73.4128 5.06901 73.0352 5.43359C72.6576 5.78516 72.2083 5.96094 71.6875 5.96094C71.1406 5.96094 70.6849 5.78516 70.3203 5.43359C69.9557 5.06901 69.7734 4.52214 69.7734 3.79297ZM94.8125 31V17.1523C94.8125 15.4076 94.4154 14.1055 93.6211 13.2461C92.8268 12.3867 91.5833 11.957 89.8906 11.957C87.651 11.957 86.0104 12.5625 84.9688 13.7734C83.9271 14.9844 83.4062 16.9831 83.4062 19.7695V31H80.1641V9.59375H82.8008L83.3281 12.5234H83.4844C84.1484 11.4688 85.0794 10.6549 86.2773 10.082C87.4753 9.49609 88.8099 9.20312 90.2812 9.20312C92.8594 9.20312 94.7995 9.82812 96.1016 11.0781C97.4036 12.3151 98.0547 14.3008 98.0547 17.0352V31H94.8125ZM107.938 20.043C108.497 19.2487 109.35 18.207 110.496 16.918L117.41 9.59375H121.258L112.586 18.7148L121.863 31H117.938L110.379 20.8828L107.938 22.9922V31H104.734V0.609375H107.938V16.7227C107.938 17.4388 107.885 18.5456 107.781 20.043H107.938ZM124.598 28.207C124.598 27.1133 124.891 26.2865 125.477 25.7266C126.062 25.1667 126.915 24.8867 128.035 24.8867C129.116 24.8867 129.949 25.1732 130.535 25.7461C131.134 26.319 131.434 27.1393 131.434 28.207C131.434 29.2357 131.134 30.0495 130.535 30.6484C129.936 31.2344 129.103 31.5273 128.035 31.5273C126.941 31.5273 126.095 31.2409 125.496 30.668C124.897 30.082 124.598 29.2617 124.598 28.207ZM141.59 20.043C141.59 22.2044 141.941 23.8385 142.645 24.9453C143.361 26.0521 144.52 26.6055 146.121 26.6055C147.71 26.6055 148.849 26.0586 149.539 24.9648C150.242 23.8581 150.594 22.2174 150.594 20.043C150.594 17.8815 150.242 16.2604 149.539 15.1797C148.836 14.099 147.684 13.5586 146.082 13.5586C144.493 13.5586 143.348 14.099 142.645 15.1797C141.941 16.2474 141.59 17.8685 141.59 20.043ZM156.688 20.043C156.688 23.5977 155.75 26.3776 153.875 28.3828C152 30.388 149.389 31.3906 146.043 31.3906C143.947 31.3906 142.098 30.9349 140.496 30.0234C138.895 29.099 137.664 27.7773 136.805 26.0586C135.945 24.3398 135.516 22.3346 135.516 20.043C135.516 16.4753 136.447 13.7018 138.309 11.7227C140.171 9.74349 142.788 8.75391 146.16 8.75391C148.257 8.75391 150.105 9.20964 151.707 10.1211C153.309 11.0326 154.539 12.3411 155.398 14.0469C156.258 15.7526 156.688 17.7513 156.688 20.043ZM181.766 31H175.809V18.2461C175.809 16.6706 175.529 15.4922 174.969 14.7109C174.409 13.9167 173.517 13.5195 172.293 13.5195C170.626 13.5195 169.422 14.0794 168.68 15.1992C167.938 16.306 167.566 18.1484 167.566 20.7266V31H161.609V9.16406H166.16L166.961 11.957H167.293C167.957 10.9023 168.868 10.1081 170.027 9.57422C171.199 9.02734 172.527 8.75391 174.012 8.75391C176.551 8.75391 178.478 9.44401 179.793 10.8242C181.108 12.1914 181.766 14.1706 181.766 16.7617V31ZM193.855 31H187.898V0.609375H193.855V31ZM199.871 3.51953C199.871 1.57943 200.952 0.609375 203.113 0.609375C205.275 0.609375 206.355 1.57943 206.355 3.51953C206.355 4.44401 206.082 5.16667 205.535 5.6875C205.001 6.19531 204.194 6.44922 203.113 6.44922C200.952 6.44922 199.871 5.47266 199.871 3.51953ZM206.082 31H200.125V9.16406H206.082V31ZM232.508 31H226.551V18.2461C226.551 16.6706 226.271 15.4922 225.711 14.7109C225.151 13.9167 224.259 13.5195 223.035 13.5195C221.368 13.5195 220.164 14.0794 219.422 15.1992C218.68 16.306 218.309 18.1484 218.309 20.7266V31H212.352V9.16406H216.902L217.703 11.957H218.035C218.699 10.9023 219.611 10.1081 220.77 9.57422C221.941 9.02734 223.27 8.75391 224.754 8.75391C227.293 8.75391 229.22 9.44401 230.535 10.8242C231.85 12.1914 232.508 14.1706 232.508 16.7617V31ZM247.684 12.9922C246.421 12.9922 245.431 13.3958 244.715 14.2031C243.999 14.9974 243.589 16.1302 243.484 17.6016H251.844C251.818 16.1302 251.434 14.9974 250.691 14.2031C249.949 13.3958 248.947 12.9922 247.684 12.9922ZM248.523 31.3906C245.008 31.3906 242.26 30.4206 240.281 28.4805C238.302 26.5404 237.312 23.793 237.312 20.2383C237.312 16.5794 238.224 13.7539 240.047 11.7617C241.883 9.75651 244.415 8.75391 247.645 8.75391C250.73 8.75391 253.133 9.63281 254.852 11.3906C256.57 13.1484 257.43 15.5768 257.43 18.6758V21.5664H243.348C243.413 23.2591 243.914 24.5807 244.852 25.5312C245.789 26.4818 247.104 26.957 248.797 26.957C250.112 26.957 251.355 26.8203 252.527 26.5469C253.699 26.2734 254.923 25.8372 256.199 25.2383V29.8477C255.158 30.3685 254.044 30.7526 252.859 31C251.674 31.2604 250.229 31.3906 248.523 31.3906Z" fill="white"></path> </svg> 